/* XPM */
static char *result[] = {
/* columns rows colors chars-per-pixel */
"64 64 8 1 ",
"  c #1A3B1B",
". c #255527",
"X c #357A38",
"o c #F57F17",
"O c #4CAF50",
"+ c #FFD600",
"@ c yellow",
"# c #FFEB3B",
/* pixels */
"OOOOOOOOOOOOOOOOOOOOOOOOOOOOOOOOOOOOOOOOOOOOOOOOOOOOOOOOOOOOOOOO",
"OOOOOOOOOOOOOOOOOOOOOOOOOOOOOOOOOOOOOOOOOOOOOOOOOOOOOOOOOOOOOOOO",
"OOOOOOOOOOOOOOOOOOOOOOOOOOOOOOOOOOOOOOOOOOOOOOOOOOOOOOOOOOOOOOOO",
"OOOOOOOOOOOOOOOOOOOOOOOOOOOOOOOOOOOOOOOOOOOOOOOOOOOOOOOOOOOOOOOO",
"OOOOOOOOOOOOOOOOOOOOOOOOOOOOOOOOOOOOOOOOOOOOOOOOOOOOOOOOOOOOOOOO",
"OOOOOOOOOOOOOOOOOOOOOOOOOOOOO#######OOOOOOOOOOOOOOOOOOOOOOOOOOOO",
"OOOOOOOOOOOOOOOOOOOOOOOOOO#############OOOOOOOOOOOOOOOOOOOOOOOOO",
"OOOOOOOOOOOOOOOOOOOOOOOO#################OOOOOOOOOOOOOOOOOOOOOOO",
"OOOOOOOOOOOOOOOOOOOOOOO###################OOOOOOOOOOOOOOOOOOOOOO",
"OOOOOOOOOOOOOOOOOOOOOO#####################OOOOOOOOOOOOOOOOOOOOO",
"OOOOOOOOOOOOOOOOOOOOO#######################OOOOOOOOOOOOOOOOOOOO",
"OOOOOOOOOOOOOOOOOOOO#########################OOOOOOOOOOOOOOOOOOO",
"OOOOOOOOOOOOOOOOOOO###########################OOOOOOOOOOOOOOOOOO",
"OOOOOOOOOOOOOOOOOO#############################OOOOOOOOOOOOOOOOO",
"OOOOOOOOOOOOOOOOOO#############################OOOOOOOOOOOOOOOOO",
"OOOOOOOOOOOOOOOOO###############################OOOOOOOOOOOOOOOO",
"OOOOOOOOOOOOOOOOO###############################OOOOOOOOOOOOOOOO",
"OOOOOOOOOOOOOOOO###########oo######oooo##########OOOOOOOOOOOOOOO",
"OOOOOOOOOOOOOOOO###########oo######oooo##########OOOOOOOOOOOOOOO",
"OOOOOOOOOOOOOOOO#########oooo####oo####oo########OOOOOOOOOOOOOOO",
"OOOOOOOOOOOOOOO##########oooo####oo####oo#########OOOOOOOOOOOOOO",
"OOOOOOOOOOOOOOO########oo##oo########oo###########OOOOOOOOOOOOOO",
"OOOOOOOOOOOOOOO########oo##oo########oo###########OOOOOOOOOOOOOO",
"OOOOOOOOOOOOOOO########oooooooo####oo#############OOOOOOOOOOOOOO",
"OOOOOOOOOOOOOOO########oooooooo####oo#############OOOOOOOOOOOOOO",
"OOOOOOOOOOOOOOO############oo####oooooooo#########OOOOOOOOOOOOOO",
"OOOOOOOOOOOOOOO#####@@@####oo####oooooooo#########OOOOOOOOOOOOOO",
"OOOOOOOOOOOOOOO####@@@@+++########################OOOOOOOOOOOOOO",
"OOOOOOOOOOOOOOO###@@@@++++++######################OOOOOOOOOOOOOO",
"OOOOOOOOOOOOOOOO##@@@++++++++####################OOOOOOOOOOOOOOO",
"OOOOOOOOOOOOOOOO##@@@+++++++++###################OOOOOOOOOOOOOOO",
"OOOOOOOOOOOOOOOO##@@@+++++++++++#################OOOOOOOOOOOOOOO",
"OOOOOOOOOOOOOOOOO##@@@++++++++++++++############OOOOOOOOOOOOOOOO",
"OOOOOOOOOOOOOOOOO##@@@@+++++++++++++++##########OOOOOOOOOOOOOOOO",
"OOOOOOOOOOOOOOOOOO#@@@@@++++++++++++++#########OOOOOOOOOOOOOOOOO",
"OOOOOOOOOOOOOOOOOO##@@@@@++++++++++++++########OOOOOOOOOOOOOOOOO",
"OOOOOOOOOOOOOOOOOOO##@@@@++++++++++++++#######OOOOOOOOOOOOOOOOOO",
"OOOOOOOOOOOOOOOOOOOO##@@@@@++++++++++++######OOOOOOOOOOOOOOOOOOO",
"OOOOOOOOOOOOOOOOOOOOO##@@@@@@+++++++++######OOOOOOOOOOOOOOOOOOOO",
"OOOOOOOOOOOOOOOOOOOOOO###@@@@@@@@++++######OOOOOOOOOOOOOOOOOOOOO",
"OOOOOOOOOOOOOOOOOOOOOOO####@@@@@@@@@######OOOOOOOOOOOOOOOOOOOOOO",
"OOOOOOOOOOOOOOOOOOOOOOOO######@@@@@######OOOOOOOOOOOOOOOOOOOOOOO",
"OOOOOOOOOOOOOOOOOOOOOOOOOO#############OOOOOOOOOOOOOOOOOOOOOOOOO",
"OOOOOOOOOOOOOOOOOOOOOOOOOOOOO#######OOOOOOOOOOOOOOOOOOOOOOOOOOOO",
"OOOOOOOOOOOOOOOOOOOOOOOOOOOOOOOOOOOOOOOOOOOOOOOOOOOOOOOOOOOOOOOO",
"OOOOOOOOOOOOOOOOOOOOOOOOOOOOOOOOOOOOOOOOOOOOOOOOOOOOOOOOOOOOOOOO",
"OOOOOOOOOOOOOOOOOOOOOOOOOOOOOOOOOOOOOOOOOOOOOOOOOOOOOOOOOOOOOOOO",
"OOOOOOOOOOOOOOOOOOOOOOOXXXXXXXXXXXXXXXXXOOOOOOOOOOOOOOOOOOOOOOOO",
"OOOOOOOOOOOOOOOOOOOOXXXXXXX............XXXXXOOOOOOOOOOOOOOOOOOOO",
"OOOOOOOOOOOOOOOOOOOOXXXX................XXXXOOOOOOOOOOOOOOOOOOOO",
"OOOOOOOOOOOOOOOOOOXXXX.......      .......XXXOOOOOOOOOOOOOOOOOOO",
"OOOOOOOOOOOOOOOOXXXX......             ...XXXOOOOOOOOOOOOOOOOOOO",
"OOOOOOOOOOOOOOOOXXX....                 ...XXXOOOOOOOOOOOOOOOOOO",
"OOOOOOOOOOOOOOOXXXX...                  ...XXXOOOOOOOOOOOOOOOOOO",
"OOOOOOOOOOOOOOOXXXX...                  ...XXXOOOOOOOOOOOOOOOOOO",
"OOOOOOOOOOOOOOOXXXX...                 ....XXXOOOOOOOOOOOOOOOOOO",
"OOOOOOOOOOOOOOOOXXX...                .....XXXOOOOOOOOOOOOOOOOOO",
"OOOOOOOOOOOOOOOOXXXX....         ........XXXXOOOOOOOOOOOOOOOOOOO",
"OOOOOOOOOOOOOOOOOOXXXX................XXXOOOOOOOOOOOOOOOOOOOOOOO",
"OOOOOOOOOOOOOOOOOOOXXXXXXXXXXXXXXXXXXXOOOOOOOOOOOOOOOOOOOOOOOOOO",
"OOOOOOOOOOOOOOOOOOOOOOXXXXXXXXXOOOOOOOOOOOOOOOOOOOOOOOOOOOOOOOOO",
"OOOOOOOOOOOOOOOOOOOOOOOOOOOOOOOOOOOOOOOOOOOOOOOOOOOOOOOOOOOOOOOO",
"OOOOOOOOOOOOOOOOOOOOOOOOOOOOOOOOOOOOOOOOOOOOOOOOOOOOOOOOOOOOOOOO",
"OOOOOOOOOOOOOOOOOOOOOOOOOOOOOOOOOOOOOOOOOOOOOOOOOOOOOOOOOOOOOOOO"
};
