/* XPM */
static char *c1895439d93042f2a85a0a0d5c7ea5bbCTSpivtt5NMZuSbZ[] = {
/* columns rows colors chars-per-pixel */
"64 64 158 2 ",
"   c black",
".  c #211901",
"X  c #3E2500",
"o  c #3E2A01",
"O  c #3E2F02",
"+  c #3E361E",
"@  c gray13",
"#  c #3E3E3E",
"$  c #573901",
"%  c #574203",
"&  c #6D5204",
"*  c #6D5304",
"=  c gray34",
"-  c #6D6D6D",
";  c #806104",
":  c #906D04",
">  c #806516",
",  c #A57D05",
"<  c #FF6E17",
"1  c #FF671A",
"2  c #FF601D",
"3  c #FF601E",
"4  c #F96A1B",
"5  c #FF681A",
"6  c #F57D14",
"7  c #F1741A",
"8  c #EE5F25",
"9  c #FE5620",
"0  c #FD5723",
"q  c #FF5722",
"w  c #FF5623",
"e  c #F75B23",
"r  c #F75B24",
"t  c #F25E25",
"y  c #F05E26",
"u  c #F45C24",
"i  c #FA5922",
"p  c #FC5823",
"a  c #FF5822",
"s  c #FA5924",
"d  c #D56B2C",
"f  c #D26D2D",
"g  c #DA6829",
"h  c #C87B2C",
"j  c #C07632",
"k  c #C87230",
"l  c #EB6027",
"z  c #E86228",
"x  c #E96228",
"c  c #77AA3D",
"v  c #77B33F",
"b  c #779944",
"n  c #789944",
"m  c #4CAF50",
"M  c #63AC46",
"N  c #63A34A",
"B  c #63B147",
"V  c #63B967",
"C  c #AB8106",
"Z  c #B18605",
"A  c #BB8E06",
"S  c #98893A",
"D  c #89903F",
"F  c #A5992C",
"G  c #B1A824",
"H  c #A6B72D",
"J  c #C48904",
"K  c #C49505",
"L  c #CC9A06",
"P  c #CF9C07",
"I  c #CF9E16",
"U  c #CF9818",
"Y  c #D59516",
"T  c #D59D13",
"R  c #D29E14",
"E  c #E98B00",
"W  c #F68209",
"Q  c #FF840A",
"!  c #FE810C",
"~  c #FF810C",
"^  c #FF8809",
"/  c #EA9101",
"(  c #E89B0A",
")  c #EC9909",
"_  c #FF9103",
"`  c #FF9303",
"'  c #FF9701",
"]  c #FE9502",
"[  c #FD9105",
"{  c #FF9004",
"}  c #F89406",
"|  c #F59C02",
" . c #FF9800",
".. c #FF9D01",
"X. c #E98C12",
"o. c #D2A007",
"O. c #DFA907",
"+. c #CFB319",
"@. c #CFB91B",
"#. c #CFBD1B",
"$. c #C8BB1E",
"%. c #C8BC1E",
"&. c #DBBC16",
"*. c #DBBE17",
"=. c #D5B818",
"-. c #E3AC07",
";. c #FFA202",
":. c #F4AC05",
">. c #EAB107",
",. c #EFB508",
"<. c #E9B50F",
"1. c #EEB40D",
"2. c #EEBF0F",
"3. c #FFB305",
"4. c #FFB505",
"5. c #F5BA07",
"6. c #FFBC07",
"7. c #FFBE06",
"8. c #F7B309",
"9. c #F8B308",
"0. c #F5B909",
"q. c #F6BE0B",
"w. c #F0BB0F",
"e. c #F2BD0E",
"r. c #F4BE0C",
"t. c #FBBE08",
"y. c #FCBF08",
"u. c #F9A610",
"i. c #ECBF10",
"p. c #F9BF13",
"a. c #C0BB21",
"s. c #EEC00F",
"d. c #FFC107",
"f. c #F7C10A",
"g. c #F0C00E",
"h. c #F5C00D",
"j. c #F9C10B",
"k. c #FEC108",
"l. c #FEC109",
"z. c #BBAC7F",
"x. c #CCB162",
"c. c #C4AF70",
"v. c #CFB97A",
"b. c #B1A991",
"n. c #BFB79F",
"m. c #A5A5A5",
"M. c #B1B1B1",
"N. c gray71",
"B. c #89CA8C",
"V. c gray80",
"C. c gray81",
"Z. c #DFDFDF",
"A. c gray89",
"S. c gray90",
"D. c #F4F4F4",
"F. c #F6F6F6",
"G. c #FBFBFB",
"H. c white",
/* pixels */
"m m m m m m m m m m m m m m m m m m m m m m m m m m m m m m m m m m m m m m m m m m m m m m m m m m m m m m m m m m m m m m m m ",
"m m m m m m m m m m m m m m m m m m m m m m m m m m m m m m m m m m m m m m m m m m m m m m m m m m m m m m m m m m m m m m m m ",
"m m m m m m m m m m m m m m m m m m m m m m m m m m m m m m m m m m m m m m m m m m m m m m m m m m m m m m m m m m m m m m m m ",
"m m m m m m m m m m m m m m m m m m m m m m m m m m m m m m m m m m m m m m m m m m m m m m m m m m m m m m m m m m m m m m m m ",
"m m m m m               m m m m m m m m m m m m m m m m m m m m m m m m m m m m m m m m m m m           m m m m m m m m m m m m ",
"m m m                       m m m m m m m m m m m m m m m m m m m m m m m m m m m m m m m m               m m m m m m m m m m m ",
"m m                           m m m m m m m m m m m m m m m m m m m m m m m m m m m m m m                   m m m m m m m m m m ",
"m m                           m m m m m m m m m m m m m m m m m m m m m m m m m m m m m                       m m m m m m m m m ",
"m m                           m m m m m m m m m m m m m m m m m m m m m m m m m m m m m                       m m m m m m m m m ",
"m m m                           m m m m m m m m m m m m m m m m m m m m m m m m m m                           m m m m m m m m m ",
"m m m m m                             m m m m m m m m m m m m m m m m m m m m m                             m m m m m m m m m m ",
"m m m m m m m m m                             m m V m m m   @   m m m V m m                               m m m m m m m m m m m ",
"m m m m m m m m m m                           @   B.V   @     @ @ # m m                                 m m m m m m m m m m m m ",
"m m m m m m m m m m m                       @ - @ M.  @ # @ M.@ @ # @ m.    @                       m m m m m m m m m m m m m m ",
"m m m m m m m m m m m                       = C.@ D.m.  C.= # M.M.Z.@ @ @                         m m m m m m m m m m m m m m m ",
"m m m m m m m m m m m m                     M.D.m.H.  Z.@ M.H.M.S.  M.H.  M.  @                   m m m m m m m m m m m m m m m ",
"m m m m m m m m m m m m m                   D.Z.H.H.H.D.D.H.H.H.H.H.H.H.H.@ m.                    m m m m m m m m m m m m m m m ",
"m m m m m m m m m m m m m m                 m.H.H.H.H.H.H.H.H.H.H.H.H.H.H.H.M.    @               m m m m m m m m m m m m m m m ",
"m m m m m m m m m m m m m m       @   m.    # H.      H.H.H.H.H.      H.H.m.  @                 m m m m m m m m m m m m m m m m ",
"m m m m m m m m m m m m m m m     m.      m.= H.H.H.H.H.M.@ H.H.H.H.H.H.H.M.@ @   m.    @       m m m m m m m m m m m m m m m m ",
"m m m m m m m m m m m m m       m.    H.  G.M.M.H.H.H.            H.H.H.      m.                    m m m m m m m m m m m m m m ",
"m m m m m m m m m m m m             H.H.H.m.m.D.G.H.N.M.m.m.D.D.D.S.H.@ @ m.Z.    H.  m.  @           m m m m m m m m m m m m m ",
"m m m m m m m m m m m m           H.H.H.H.H.m.m.m.C.@ D.H.m.  @ N.S.D.A.m.      H.H.H.  m.            m m m m m m m m m m m m m ",
"m m m m m m m m m m m m         @   H.H.H.  . & O + O b.z.O . O     & & b.m.  H.H.H.H.H.m.            m m m m m m m m m m m m m ",
"m m m m m m m m m m m         m.      H.. > O % & . O O . O   O , * .   O   @   G.H.H.                  m m m m m m m m m m m m ",
"m m m m m m m m m m m             m.m.n.: C o.y.,.o.0.o.g.h.*.h.P , k.k., x.& % . G.  @                 m m m m m m m m m m m m ",
"m m m m m m m m m m                 O @ A k.p.5.y., s.s.=.g.H i.k.k.*.% -.O . b.z.v..                     m m m m m m m m m m m ",
"m m m m m m m m m m         .   . . O , k.y.d.k.d.k.k.k.k.k.k.k.k.k.k.k.7.y.-.0.Z @ $ c.m.. . .           m m m m m m m m m m m ",
"m m m m m m m m m m     . .   O % O -.  O.d.d.d.d.d.d.d.k.k.k.d.d.d.d.d.k.d.d.L 2.0., % & O                 m m m m m m m m m m ",
"m m m m m m m m m     O . O K ; K Z a.  d.d.d.d.d.d.d.d.d.k.d.d.d.d.d.d.d.d.k.d.d.q.$.g.% Z A Z $ . .       m m m m m m m m m m ",
"m m m m m m m m m   . O K L & >.i.s.k.k.d.d.d.d.d.d.d.d.d.d.d.d.d.d.d.d.d.k.k.d.d.d.d.k.2.*.G X               m m m m m m m m m ",
"m m m m m m m m     . >.& g.d.k.t.k.k.k.d.d.d.d.k.k.d.k.d.d.k.k.d.d.d.d.d.d.d.d.d.d.d.d.d.d.d.d.8.$.o $       m m m m m m m m m ",
"m m m m m m m m     , a.t.k.d.d.d.d.d.d.d.k.d.d.k.d.k.k.k.k.j.k.k.d.d.d.d.B d.d.d.d.d.d.d.d.d.d.d.=.@.  m     m m m m m m m m m ",
"m m m m m m m m m m %.O.k.d.d.d.d.k.d.d.d.k.7.k.d.k.k.7.k.k.k.k.d.d.d.k.k.d.d.d.d.d.d.d.d.d.d.d.d.d.:.M c m m m m m m m m m m m ",
"m m m m m m m m m M M k.k.k.d.d.d.d.k.d.d.J y.7.d.k.7.7. . .j.d.d.d.d.f.e.k.d.d.d.d.d.d.d.d.d.d.d. .T ) m m m m m m m m m m m m ",
"m m m m m m m m m m 1.d.d.k.d.d.d.d.k.d./ I 3.4.;...j.t.3. . . .;.. r.f.k.u.7.k.d.d.d.d. .d.d.d..... .( m m m m m m m m m m m m ",
"m m m m m m m m m <.B #.d.d.d.d.d.d.d.v | +.}  .]  .R X.m  .[  .E 3 m x m F 6  .;.7.k.d.k.7.7.4. . .) D n m m m m m m m m m m m ",
"m m m m m m m m m a.w.k.7.d.d.d.d.d.7. ...1.X.Y ] 3 _  .{ { U W 5 q { ) ] ] 4 7  . . .;. .t.7.4.7.s.@.m m m m m m m m m m m m m ",
"m m m m m m m m m D  .3.d.d.d.d.7.4.6.7.7.9.( { _ a ~ ~ r 8 z ~ ~ ~ ~ q x (  . . . . . . . . . .] 5 i 8 D n m m m m m m m m m m ",
"m m m m m m m m m M r  . ...;.4.7.d.y.3. .Y b a 5 a { { w q $ q q q a n N m ~ ]  . . . . .]  .] 5 ~ ] { x m m m m m m m m m m m ",
"m m m m m m m m I 8 j m { q ]  .]  . . .h x b m q q q q q q q q q q l g m b D q ~ _ ]  . . .< 5 ] ] { q x m m m m m m m m m m m ",
"m m m m m m m m m m G { ^ 6 ! ] ~  . .3 3 r D j q q q q q q q q q q q j x r k s q q 3 3 Q _ { ] ] q q m m m m m m m m m m m m m ",
"m m m m m m m m m m q q 3 ! _ _ { { ^ q ~ ~ m d k q q q q q q q q q x x z j q q q q a a q q q q a q D b m m m m m m m m m m m m ",
"m m m m m m m m m D N q 9 9 9 c q Q Q ~ { ~ r j m N q q t q q q q b N m m m m j a q q q q q q q a t m m m m m m m m m m m m m m ",
"m m m m m m m m r j m m q q d S j q q q N m m m r q q r m z q q f n m m m m m z i 8 D q q q i a q q q p x m m m m m m m m m m m ",
"m m m m m m m m m m r i q k r m j j q m f j m m m m D N s q a t N x r j m m m m z l q q q t b j j m m m m m m m m m m m m m m m ",
"m m m m m m m m m m m m D N r s a r i m j j m m m m m m m m N b j r x m m m m m m m z l e 8 q a x m m m m m m m m m m m m m m m ",
"m m m m m m m m m m m m m m m m m m D m r r m m m m m m m m m m m m m m m m m m m m m m b m l z m m m m m m m m m m m m m m m m ",
"m m m m m m m m m m m m m m m m m m m m m m m m m m m m m m m m m m m m m m m m m m m m m m m m m m m m m m m m m m m m m m m m ",
"m m m m m m m m m m m m m m m m m m m m m m m m m m m m m m m m m m m m m m m m m m m m m m m m m m m m m m m m m m m m m m m m ",
"m m m m m m m m m m m m m m m m m m m m m m m m m m m m m m m m m m m m m m m m m m m m m m m m m m m m m m m m m m m m m m m m ",
"m m m m m m m m m m m m m m m m m m m m m m m m m m m m m m m m m m m m m m m m m m m m m m m m m m m m m m m m m m m m m m m m ",
"m m m m m m m m m m m m m m m m m m m m m m m m m m m m m m m m m m m m m m m m m m m m m m m m m m m m m m m m m m m m m m m m ",
"m m m m m m m m m m m m m m m m m m m m m m m m m m m m m m m m m m m m m m m m m m m m m m m m m m m m m m m m m m m m m m m m ",
"m m m m m m m m m m m m m m m m m m m m m m m m m m m m m m m m m m m m m m m m m m m m m m m m m m m m m m m m m m m m m m m m ",
"m m m m m m m m m m m m m m m m m m m m m m m m m m m m m m m m m m m m m m m m m m m m m m m m m m m m m m m m m m m m m m m m ",
"m m m m m m m m m m m m m m m m m m m m m m m m m m m m m m m m m m m m m m m m m m m m m m m m m m m m m m m m m m m m m m m m ",
"m m m m m m m m m m m m m m m m m m m m m m m m m m m m m m m m m m m m m m m m m m m m m m m m m m m m m m m m m m m m m m m m ",
"m m m m m m m m m m m m m m m m m m m m m m m m m m m m m m m m m m m m m m m m m m m m m m m m m m m m m m m m m m m m m m m m ",
"m m m m m m m m m m m m m m m m m m m m m m m m m m m m m m m m m m m m m m m m m m m m m m m m m m m m m m m m m m m m m m m m ",
"m m m m m m m m m m m m m m m m m m m m m m m m m m m m m m m m m m m m m m m m m m m m m m m m m m m m m m m m m m m m m m m m ",
"m m m m m m m m m m m m m m m m m m m m m m m m m m m m m m m m m m m m m m m m m m m m m m m m m m m m m m m m m m m m m m m m ",
"m m m m m m m m m m m m m m m m m m m m m m m m m m m m m m m m m m m m m m m m m m m m m m m m m m m m m m m m m m m m m m m m ",
"m m m m m m m m m m m m m m m m m m m m m m m m m m m m m m m m m m m m m m m m m m m m m m m m m m m m m m m m m m m m m m m m "
};
