/* XPM */
static char *result[] = {
/* columns rows colors chars-per-pixel */
"64 64 3 1 ",
"  c #4CAF50",
". c #311B92",
"X c #7C4DFF",
/* pixels */
"                                                                ",
"                                                                ",
"                                                                ",
"                                                                ",
"                                                                ",
"                                                                ",
"                                                                ",
"                                                                ",
"                                                                ",
"                                                      ..        ",
"     .                                        .    ....         ",
"     .   ......                               ..   .            ",
"    ..   .                                     .   ..           ",
"    ..    .                                    ..   .           ",
"     .    .                                     .   .           ",
"     ..   .                                     .  ..           ",
"      ...  .                                    . ..            ",
"        ... .                                   ...             ",
"          ...                                   ..              ",
"        .......                              .........          ",
"       ..     ...                           ..       ..         ",
"       .        ..                          .         .         ",
"                 ..                        ..         .         ",
"                  ..                       .                    ",
"                   ..                      .                    ",
"                    .                      .                    ",
"                    .                     .                     ",
"                    .                     .                     ",
"                    .                     .                     ",
"                    .                     .                     ",
"                    .    XXXXXXXXXXXXX    .                     ",
"                    .XXXXXXXXXXXXXXXXXXXXX.                     ",
"                  XXXXXXXXXXXXXXXXXXXXXXXXXXX                   ",
"                XXXXXXXXXXXXXXXXXXXXXXXXXXXXXXX                 ",
"               XXXXXXXXXXXXXXXXXXXXXXXXXXXXXXXXX                ",
"             XXXXXXXXXXXXXXXXXXXXXXXXXXXXXXXXXXXXX              ",
"            XXXXXXXXXXXXXXXXXXXXXXXXXXXXXXXXXXXXXXX             ",
"           XXXXXXXXXXXXXXXXXXXXXXXXXXXXXXXXXXXXXXXXX            ",
"          XXXXXXXXXXXXXXXXXXXXXXXXXXXX...XXXXXXXXXXXX           ",
"          XXXXXXXX.......XXXXXXXXXXX..........XXXXXXX           ",
"         XXXXXXXX...XXX....XXXXXXXXX...XX.......XXXXXX          ",
"         XXXXXXX.....XX.....XXXXXXX..............XXXXX          ",
"        XXXXXXX..X........X.XXXXXXX.XX........X..XXXXXX.......  ",
"        XXXXXXXXXX.......XXXXXXXXXXXXXXXXXXXXXXXXXXXXXX.......  ",
"    ....XXXXXXXXXXXXXXXXXXXXXXXXXXXXXXXXXXXXXXXXXXXXXXX.......  ",
"  ......XXXXXXXXXXXXXXXXXXXXXXXXXXXXXXXXXXXXXXXXXXXXXXX    ...  ",
"  ......XXXXXXXXXXXXXXXXXXXXXXXXXXXXXXXXXXXXXXXXXXXXXXX    ...  ",
"  ....   XXXXXXXXXXXXXXXXXXXXXXXXXXXXXXXXXXXXXXXXXXXXX    ....  ",
" ...     XXXXXXXXXXXXX.XXXX.XXXXXXXXXXXXX.XXXXXXXXXXXX   .....  ",
" ....     XXXXXXXXXXXX..X.....XX..........XXXXXXXXXXX    . ..   ",
"  . .     XXXXXXXXXXXX.....X.......X.X....XXXXXXXXXXX   .. .    ",
"  . .      XXXXXXXXXXXXXXXXXXXXXXXXXXXXXXXXXXXXXXXXX    .. .    ",
"  .         XXXXXXXXXXXXXXXXXXXXXXXXXXXXXXXXXXXXXXX      .      ",
"             XXXXXXXXXXXXXXXXXXXXXXXXXXXXXXXXXXXXX.             ",
"               XXXXXXXXXXXXXXXXXXXXXXXXXXXXXXXXX...             ",
"               .XXXXXXXXXXXXXXXXXXXXXXXXXXXXXX.....             ",
"               .....XXXXXXXXXXXXXXXXXXXXXXXXX.....              ",
"               ......XXXXXXXXXXXXXXXXXXXXX   ......             ",
"              ........   XXXXXXXXXXXXX       ...........        ",
"          ..  ........                        ..........        ",
"         .............                        ...........       ",
"         .............                        ...........       ",
"               ....                                             ",
"                                                                "
};
