/* XPM */
static char *result[] = {
/* columns rows colors chars-per-pixel */
"64 64 9 1 ",
"  c #1B5E20",
". c #2E7D32",
"X c #795548",
"o c #388E3C",
"O c #43A047",
"+ c #4CAF50",
"@ c #66BB6A",
"# c #81C784",
"$ c None",
/* pixels */
"++++++++++++++++++++++++++++++++++++++++++++++++++++++++++++++++",
"++++++++++++++++++++++++++++++++++++++++++++++++++++++++++++++++",
"++++++++++++++++++++++++++++++++++++++++++++++++++++++++++++++++",
"++++++++++++++++++++++++++++++++++++++++++++++++++++++++++++++++",
"+++++++++++++++++      +++++               +++++++++++++++++++++",
"++++++++++++++                                 +++++++++++++++++",
"+++++++++++++                                   ++++++++++++++++",
"++++++++++++                                      ++++++++++++++",
"++++++++++                      ..........         +++++++++++++",
"++++++++++    ...oooooooooooo....        ....      +++++++++++++",
"+++++++++    .ooooo......   ooooo           ....     +++++++++++",
"+++++++++   .oooooo      OOOOOOOoooooooooo     ..      +++++++++",
"++++++++   ..ooooo  OOOOOOOOOOOOOOOOOOOooooooo  ..     +++++++++",
"++++++++  .. ooOOOOOOOOOOOOOOOO OOOOO OOOOooooooooo    +++++++++",
"++++++++  . oooOOOOOOOOOOOOOOOOOOOOOO OOOOOOoooo .ooo    +++++++",
"+++++++  .oo  OOOOOOOOOO        +++++ OOOO OOooo   ..o    ++++++",
"++++++   .oooOo.OOOOOOOOO ++++@@++ +++++++OOOOOO    .oo   ++++++",
"++++++   oooOOo.O OOOOO++++++@@@@@@@@@@@@++OOOOOOoooo o..   ++++",
"++++++   o.  OOOOOOO+++++++@@@@@ ###@@@ @@@++++OOo  ooo .   ++++",
"+++++   ooooo. .O O++ ++++@@@@########## +@@   ++OOooo  .   ++++",
"++++    ooooo.OOOO++OO   +@@@###########@@@@@++ +OOO oo ..    ++",
"+++     oooo.OO.O +OOO +++@++###  ######@@@@@++++OOOOoo  ..    +",
"++      o. .OO.OOO+++ ++++@@####### #### @@@@@++OOO OOo   .    +",
"+       ooooOooOO ++++++++@############# @@@@@++OOOOoOO   .   ++",
"+       ....Oo.OO+++++++++@@############   @@@+++OOO oOO  .   ++",
"       .. .oOOOOO++++ +++   @@ ########  @@@@@  ++OOOooOo ..  ++",
"      ..  .oooOO OO++++++++++@@@@@ @@ @@@@@@@@   +OOOOOOo .   ++",
" ......  ..oooOOOOO++ ++  +++++++++@@@@@@@@@@   ++OO  o o ..  ++",
" .       . o oOOOOOO+++++++++++++++  @@@@@@ +++++  OO ooo  ...++",
" .... . .. ooooOOOOOOOOO   +++++++++++++ +++++++++OOO ooo   ..++",
"  ..... . ..o ooooOOOOOOOO OOO++++++++++++ ++++++ OOOO o   .. ++",
"  ....... . ooooooOOOOOO OOO O OO    ++++++++++++O  OO o  ..  ++",
"  ....... . ooooo OO     OO OOOOOOOOO  OOOOOOOoOOOOOO ooo ..  ++",
"   ...... .oooooooOOOOOOOOOO  OOOOOOOoO OOOOOOOOOO oo oo   .  ++",
"  ....... .oooooooooo oooOOOOOOOOOOOOOOOOOoooooooooo ooo   . +++",
"  .. .... .o oooo oo  ooo  oo ooo   oo.  oo   .  .ooooo  ... +++",
"+ .........  ooooooooooo  oo  oo .ooo.. oo   .. ...  .   .   +++",
"+ ........   ooooooooo   ooooooooooo oooo    .. ... ..   .   +++",
"++ .. ......  ooo  ..o ooo oo oo . ooo ..   .... .  .. ...   +++",
"++ .. .... .  .    . ooo..  .   ...... .. .. ..  . ......    +++",
"++  . .. . . ..   .. . ... ..  .. .........     ....  .      +++",
"++  ...... ....   .  ... ...   .. .....         .... ..     ++++",
"++++ ......  ... ...       .  ......... ...   ........     +++++",
"++++    ...... .....  ..   ... ......  .. .........       ++++++",
"++++++       ...........   ..  ....                      +++++++",
"++++++++               ............                      +++++++",
"+++++++++     +                   .                      +++++++",
"++++++++++++++++                                     +++++++++++",
"++++++++++++++++                       XXXX  +++    ++++++++++++",
"++++++++++++++++XXX    X           XXXXXXXXX++++++++++++++++++++",
"+++++++++++++++++XXXXXXXX XXX XXXX XXXXXXX++++++++++++++++++++++",
"++++++++++++++++++XXXXXXXXXXXXXXXXXXXXXXX+++++++++++++++++++++++",
"+++++++++++++++++++XXXXXXXXXXXXXXXXXXXXXX+++++++++++++++++++++++",
"++++++++++++++++++++XXXXXXXXXXXXXXXXXXX+++++++++++++++++++++++++",
"++++++++++++++++++++XXXXXXXXXXXXXXXXXXXX++++++++++++++++++++++++",
"++++++++++++++++++++XXXXXXXXXXXXXXXXXXXX++++++++++++++++++++++++",
"++++++++++++++++++XXXXXXXXXXXXXXXXXXXXXX++++++++++++++++++++++++",
"+++++++++++++++++XXXXXXXXXXXXXXXXXXXXXXXXX++++++++++++++++++++++",
"+++++++++++++++XXXXXXXXXXXXXXXXXXXXXXXXXXXX+++++++++++++++++++++",
"+++++++++++++XXXXXXXXXXXXXXXXXXXXXXXXXXXXXXXXX++++++++++++++++++",
"+++++++++++XXXXXXXXXXXXXXXXXXXXXXXXXXXXXXXXXXXXXX+++++++++++++++",
"++++++++XXXXXXXXXXXXXXXXXXXXXXXXXXXXXXXXXXXXXXXXXXXXX+++++++++++",
"+++++XXXXXXXXXXXXXXXXXXXXXXXXXXXXXXXXXXXXXXXXXXXXXXXXXXX++++++++",
"+++XXXXXXXXXXXXXXXXXXXXXXXXXXXXX$$XXXXXXXXXXXXXXXXXXXXXXXX++++++"
};
